<svg width="17" height="16" viewBox="0 0 17 16" fill="none" xmlns="http://www.w3.org/2000/svg">
<path d="M8.5 0.25C4.21875 0.25 0.75 3.75 0.75 8C0.75 12.2812 4.21875 15.75 8.5 15.75C12.75 15.75 16.25 12.2812 16.25 8C16.25 3.75 12.75 0.25 8.5 0.25ZM13.5938 3.84375C14.5312 4.96875 15.0938 6.40625 15.0938 7.96875C14.875 7.90625 12.6875 7.46875 10.5 7.75C10.3125 7.3125 10.1562 6.9375 9.90625 6.4375C12.375 5.4375 13.4688 4.03125 13.5938 3.84375ZM12.875 3.0625C12.75 3.25 11.75 4.59375 9.40625 5.46875C8.3125 3.46875 7.125 1.84375 6.9375 1.59375C9.03125 1.09375 11.25 1.625 12.875 3.0625ZM5.65625 2.03125C5.84375 2.28125 7.03125 3.90625 8.125 5.875C5.03125 6.6875 2.3125 6.6875 2 6.65625C2.4375 4.625 3.8125 2.90625 5.65625 2.03125ZM1.875 8.03125C1.875 7.96875 1.875 7.90625 1.875 7.8125C2.15625 7.84375 5.375 7.875 8.65625 6.875C8.875 7.25 9.03125 7.625 9.21875 8C6.8125 8.6875 4.625 10.625 3.5625 12.4375C2.5 11.2812 1.875 9.71875 1.875 8.03125ZM4.40625 13.25C5.125 11.8438 7 10 9.65625 9.09375C10.5938 11.5 10.9688 13.5312 11.0625 14.125C8.9375 15.0312 6.375 14.7812 4.40625 13.25ZM12.1875 13.5C12.125 13.125 11.75 11.1875 10.9062 8.78125C12.9688 8.46875 14.7812 9 15.0312 9.0625C14.7188 10.9062 13.6562 12.5 12.1875 13.5Z" fill="#232222"/>
</svg>
