<svg width="16" height="16" viewBox="0 0 16 16" fill="none" xmlns="http://www.w3.org/2000/svg">
<path d="M5.65625 12.4375C5.65625 12.5 5.59375 12.5312 5.5 12.5312C5.40625 12.5625 5.34375 12.5 5.34375 12.4375C5.34375 12.375 5.40625 12.3125 5.5 12.3125C5.59375 12.3125 5.65625 12.375 5.65625 12.4375ZM4.6875 12.2812C4.6875 12.3438 4.75 12.4375 4.84375 12.4375C4.90625 12.4688 5 12.4375 5.03125 12.375C5.03125 12.3125 5 12.25 4.90625 12.2188C4.8125 12.1875 4.71875 12.2188 4.6875 12.2812ZM6.09375 12.25C6 12.25 5.9375 12.3125 5.9375 12.4062C5.9375 12.4688 6.03125 12.5 6.125 12.4688C6.21875 12.4375 6.28125 12.4062 6.25 12.3438C6.25 12.2812 6.15625 12.2188 6.09375 12.25ZM8.125 0.25C3.8125 0.25 0.5 3.5625 0.5 7.875C0.5 11.3438 2.65625 14.3125 5.78125 15.375C6.1875 15.4375 6.3125 15.1875 6.3125 15C6.3125 14.7812 6.3125 13.7188 6.3125 13.0625C6.3125 13.0625 4.125 13.5312 3.65625 12.125C3.65625 12.125 3.3125 11.2188 2.8125 11C2.8125 11 2.09375 10.5 2.84375 10.5C2.84375 10.5 3.625 10.5625 4.0625 11.3125C4.75 12.5312 5.875 12.1875 6.34375 11.9688C6.40625 11.4688 6.59375 11.125 6.84375 10.9062C5.09375 10.7188 3.3125 10.4688 3.3125 7.46875C3.3125 6.59375 3.5625 6.1875 4.0625 5.625C3.96875 5.40625 3.71875 4.59375 4.15625 3.5C4.78125 3.3125 6.3125 4.34375 6.3125 4.34375C6.9375 4.15625 7.59375 4.09375 8.25 4.09375C8.9375 4.09375 9.59375 4.15625 10.2188 4.34375C10.2188 4.34375 11.7188 3.28125 12.375 3.5C12.8125 4.59375 12.5312 5.40625 12.4688 5.625C12.9688 6.1875 13.2812 6.59375 13.2812 7.46875C13.2812 10.4688 11.4375 10.7188 9.6875 10.9062C9.96875 11.1562 10.2188 11.625 10.2188 12.375C10.2188 13.4062 10.1875 14.7188 10.1875 14.9688C10.1875 15.1875 10.3438 15.4375 10.75 15.3438C13.875 14.3125 16 11.3438 16 7.875C16 3.5625 12.4688 0.25 8.125 0.25ZM3.53125 11.0312C3.46875 11.0625 3.5 11.1562 3.53125 11.2188C3.59375 11.25 3.65625 11.2812 3.71875 11.25C3.75 11.2188 3.75 11.125 3.6875 11.0625C3.625 11.0312 3.5625 11 3.53125 11.0312ZM3.1875 10.7812C3.15625 10.8438 3.1875 10.875 3.25 10.9062C3.3125 10.9375 3.375 10.9375 3.40625 10.875C3.40625 10.8438 3.375 10.8125 3.3125 10.7812C3.25 10.75 3.21875 10.75 3.1875 10.7812ZM4.1875 11.9062C4.15625 11.9375 4.15625 12.0312 4.25 12.0938C4.3125 12.1562 4.40625 12.1875 4.4375 12.125C4.46875 12.0938 4.46875 12 4.40625 11.9375C4.34375 11.875 4.25 11.8438 4.1875 11.9062ZM3.84375 11.4375C3.78125 11.4688 3.78125 11.5625 3.84375 11.625C3.90625 11.6875 3.96875 11.7188 4.03125 11.6875C4.0625 11.6562 4.0625 11.5625 4.03125 11.5C3.96875 11.4375 3.90625 11.4062 3.84375 11.4375Z" fill="#232222"/>
</svg>
