<svg width="15" height="14" viewBox="0 0 15 14" fill="none" xmlns="http://www.w3.org/2000/svg">
<path d="M13.5 0H1.46875C0.9375 0 0.5 0.46875 0.5 1.03125V13C0.5 13.5625 0.9375 14 1.46875 14H13.5C14.0312 14 14.5 13.5625 14.5 13V1.03125C14.5 0.46875 14.0312 0 13.5 0ZM4.71875 12H2.65625V5.34375H4.71875V12ZM3.6875 4.40625C3 4.40625 2.46875 3.875 2.46875 3.21875C2.46875 2.5625 3 2 3.6875 2C4.34375 2 4.875 2.5625 4.875 3.21875C4.875 3.875 4.34375 4.40625 3.6875 4.40625ZM12.5 12H10.4062V8.75C10.4062 8 10.4062 7 9.34375 7C8.25 7 8.09375 7.84375 8.09375 8.71875V12H6.03125V5.34375H8V6.25H8.03125C8.3125 5.71875 9 5.15625 10 5.15625C12.0938 5.15625 12.5 6.5625 12.5 8.34375V12Z" fill="#232222"/>
</svg>
