<?xml version="1.0" encoding="UTF-8"?><svg id="Layer_2" xmlns="http://www.w3.org/2000/svg" xmlns:xlink="http://www.w3.org/1999/xlink" viewBox="0 0 570.82 461.66"><defs><style>.cls-1{opacity:.1;}.cls-1,.cls-2,.cls-3,.cls-4,.cls-5{fill:none;stroke:#fff;stroke-miterlimit:10;stroke-width:4px;}.cls-2{opacity:.2;}.cls-3{opacity:.6;}.cls-6{fill:url(#radial-gradient-3);}.cls-7{fill:url(#radial-gradient-2);}.cls-8{fill:url(#radial-gradient);}.cls-5{opacity:.4;}</style><radialGradient id="radial-gradient" cx="-967.09" cy="212.9" fx="-1156.64" fy="193.85" r="196.27" gradientTransform="translate(-105.18 -681.83) rotate(-90)" gradientUnits="userSpaceOnUse"><stop offset="0" stop-color="#c7aecf"/><stop offset=".23" stop-color="#b4daf3"/><stop offset=".49" stop-color="#c7e1ce"/><stop offset=".73" stop-color="#f2f3c4"/><stop offset="1" stop-color="#edb4b7"/></radialGradient><radialGradient id="radial-gradient-2" cy="568.27" fy="549.22" xlink:href="#radial-gradient"/><radialGradient id="radial-gradient-3" cx="-912.67" cy="390.59" fx="-1146.59" fy="367.07" r="242.23" xlink:href="#radial-gradient"/></defs><g id="Layer_1-2"><path class="cls-4" d="m1.41,271.77c14.25-14.25,37.36-14.25,51.61,0h0c14.25,14.25,37.36,14.25,51.61,0h0c14.25-14.25,37.36-14.25,51.61,0h0c14.25,14.25,37.36,14.25,51.61,0h0c14.25-14.25,37.36-14.25,51.61,0h0c14.25,14.25,37.36,14.25,51.61,0h0c14.25-14.25,37.36-14.25,51.61,0h0c14.25,14.25,37.36,14.25,51.61,0h0c14.25-14.25,37.36-14.25,51.61,0h0c14.25,14.25,37.36,14.25,51.61,0h0c14.25-14.25,37.36-14.25,51.61,0"/><path class="cls-3" d="m1.64,307.47c14.25-14.25,37.36-14.25,51.61,0h0c14.25,14.25,37.36,14.25,51.61,0h0c14.25-14.25,37.36-14.25,51.61,0h0c14.25,14.25,37.36,14.25,51.61,0h0c14.25-14.25,37.36-14.25,51.61,0h0c14.25,14.25,37.36,14.25,51.61,0h0c14.25-14.25,37.36-14.25,51.61,0h0c14.25,14.25,37.36,14.25,51.61,0h0c14.25-14.25,37.36-14.25,51.61,0h0c14.25,14.25,37.36,14.25,51.61,0h0c14.25-14.25,37.36-14.25,51.61,0"/><path class="cls-5" d="m1.41,343.17c14.25-14.25,37.36-14.25,51.61,0h0c14.25,14.25,37.36,14.25,51.61,0h0c14.25-14.25,37.36-14.25,51.61,0h0c14.25,14.25,37.36,14.25,51.61,0h0c14.25-14.25,37.36-14.25,51.61,0h0c14.25,14.25,37.36,14.25,51.61,0h0c14.25-14.25,37.36-14.25,51.61,0h0c14.25,14.25,37.36,14.25,51.61,0h0c14.25-14.25,37.36-14.25,51.61,0h0c14.25,14.25,37.36,14.25,51.61,0h0c14.25-14.25,37.36-14.25,51.61,0"/><path class="cls-2" d="m1.64,378.88c14.25-14.25,37.36-14.25,51.61,0h0c14.25,14.25,37.36,14.25,51.61,0h0c14.25-14.25,37.36-14.25,51.61,0h0c14.25,14.25,37.36,14.25,51.61,0h0c14.25-14.25,37.36-14.25,51.61,0h0c14.25,14.25,37.36,14.25,51.61,0h0c14.25-14.25,37.36-14.25,51.61,0h0c14.25,14.25,37.36,14.25,51.61,0h0c14.25-14.25,37.36-14.25,51.61,0h0c14.25,14.25,37.36,14.25,51.61,0h0c14.25-14.25,37.36-14.25,51.61,0"/><path class="cls-1" d="m1.41,414.58c14.25-14.25,37.36-14.25,51.61,0h0c14.25,14.25,37.36,14.25,51.61,0h0c14.25-14.25,37.36-14.25,51.61,0h0c14.25,14.25,37.36,14.25,51.61,0h0c14.25-14.25,37.36-14.25,51.61,0h0c14.25,14.25,37.36,14.25,51.61,0h0c14.25-14.25,37.36-14.25,51.61,0h0c14.25,14.25,37.36,14.25,51.61,0h0c14.25-14.25,37.36-14.25,51.61,0h0c14.25,14.25,37.36,14.25,51.61,0h0c14.25-14.25,37.36-14.25,51.61,0"/><polygon class="cls-8" points="1.64 215.34 4.47 218.17 106.13 116.51 106.13 461.66 110.13 461.66 110.13 116.51 210.98 217.35 213.8 214.52 108.13 108.85 1.64 215.34"/><polygon class="cls-7" points="357.02 215.34 359.84 218.17 461.51 116.51 461.51 461.66 465.51 461.66 465.51 116.51 566.35 217.35 569.18 214.52 463.51 108.85 357.02 215.34"/><polygon class="cls-6" points="179.33 106.49 182.16 109.32 283.82 7.66 283.82 461.66 287.82 461.66 287.82 7.66 388.66 108.5 391.49 105.67 285.82 0 179.33 106.49"/></g></svg>