<?xml version="1.0" encoding="UTF-8"?><svg id="Layer_2" xmlns="http://www.w3.org/2000/svg" xmlns:xlink="http://www.w3.org/1999/xlink" viewBox="0 0 480.29 289.6"><defs><style>.cls-1{opacity:.1;}.cls-1,.cls-2,.cls-3,.cls-4,.cls-5{fill:none;stroke:#fff;stroke-miterlimit:10;stroke-width:4px;}.cls-2{opacity:.2;}.cls-3{opacity:.6;}.cls-6{fill:url(#radial-gradient);}.cls-5{opacity:.4;}</style><radialGradient id="radial-gradient" cx="167.75" cy="144.8" fx="167.75" fy="144.8" r="122.33" gradientUnits="userSpaceOnUse"><stop offset="0" stop-color="#c7aecf"/><stop offset=".23" stop-color="#b4daf3"/><stop offset=".49" stop-color="#c7e1ce"/><stop offset=".73" stop-color="#f2f3c4"/><stop offset="1" stop-color="#edb4b7"/></radialGradient></defs><g id="Layer_1-2"><circle class="cls-1" cx="335.5" cy="144.8" r="142.8"/><circle class="cls-2" cx="335.5" cy="144.8" r="113.1"/><circle class="cls-5" cx="335.5" cy="144.8" r="82.13"/><circle class="cls-3" cx="335.5" cy="144.8" r="52.84"/><circle class="cls-4" cx="335.5" cy="144.8" r="26.05"/><polygon class="cls-6" points="335.5 142.8 123.11 142.8 82.83 102.52 80 105.35 117.45 142.8 83.11 142.8 42.83 102.52 40 105.35 77.45 142.8 43.11 142.8 2.83 102.52 0 105.35 38.47 143.81 38.47 145.78 0 184.25 2.83 187.08 43.11 146.8 77.45 146.8 40 184.25 42.83 187.08 83.11 146.8 117.45 146.8 80 184.25 82.83 187.08 123.11 146.8 335.5 146.8 335.5 142.8"/></g></svg>