<?xml version="1.0" encoding="UTF-8"?><svg id="Layer_2" xmlns="http://www.w3.org/2000/svg" xmlns:xlink="http://www.w3.org/1999/xlink" viewBox="0 0 583.02 291.6"><defs><style>.cls-1{opacity:.1;}.cls-1,.cls-2,.cls-3,.cls-4,.cls-5{fill:none;stroke:#fff;stroke-miterlimit:10;stroke-width:4px;}.cls-6{fill:url(#radial-gradient-3);}.cls-7{fill:url(#radial-gradient-4);}.cls-8{fill:url(#radial-gradient-2);}.cls-2{opacity:.49;}.cls-9{fill:url(#radial-gradient);}.cls-4{opacity:.66;}.cls-5{opacity:.33;}</style><radialGradient id="radial-gradient" cx="438.22" cy="7" fx="438.22" fy="7" r="2.55" gradientUnits="userSpaceOnUse"><stop offset="0" stop-color="#c7aecf"/><stop offset=".23" stop-color="#b4daf3"/><stop offset=".49" stop-color="#c7e1ce"/><stop offset=".73" stop-color="#f2f3c4"/><stop offset="1" stop-color="#edb4b7"/></radialGradient><radialGradient id="radial-gradient-2" cy="146.8" fy="146.8" r="88.33" xlink:href="#radial-gradient"/><radialGradient id="radial-gradient-3" cy="286.6" fy="286.6" xlink:href="#radial-gradient"/><radialGradient id="radial-gradient-4" cy="75.4" fy="75.4" r="114.79" xlink:href="#radial-gradient"/></defs><g id="Layer_1-2"><g><circle class="cls-3" cx="438.22" cy="146.8" r="142.8"/><circle class="cls-1" cx="32.51" cy="32.51" r="30.51"/><circle class="cls-5" cx="101.15" cy="32.51" r="30.51"/><circle class="cls-2" cx="169.79" cy="32.51" r="30.51"/><circle class="cls-4" cx="238.44" cy="32.51" r="30.51"/><circle class="cls-1" cx="32.51" cy="107.37" r="30.51"/><circle class="cls-5" cx="101.15" cy="107.37" r="30.51"/><circle class="cls-2" cx="169.79" cy="107.37" r="30.51"/><circle class="cls-4" cx="238.44" cy="107.37" r="30.51"/><circle class="cls-1" cx="32.51" cy="182.23" r="30.51"/><circle class="cls-5" cx="101.15" cy="182.23" r="30.51"/><circle class="cls-2" cx="169.79" cy="182.23" r="30.51"/><circle class="cls-4" cx="238.44" cy="182.23" r="30.51"/><circle class="cls-1" cx="32.51" cy="257.09" r="30.51"/><circle class="cls-5" cx="101.15" cy="257.09" r="30.51"/><circle class="cls-2" cx="169.79" cy="257.09" r="30.51"/><circle class="cls-4" cx="238.44" cy="257.09" r="30.51"/><g><rect class="cls-9" x="436.22" y="4" width="4" height="6"/><path class="cls-8" d="m440.22,271.7h-4v-11.9h4v11.9Zm0-23.79h-4v-11.9h4v11.9Zm0-23.79h-4v-11.9h4v11.9Zm0-23.79h-4v-11.9h4v11.9Zm0-23.79h-4v-11.9h4v11.9Zm0-23.79h-4v-11.9h4v11.9Zm0-23.79h-4v-11.9h4v11.9Zm0-23.79h-4v-11.9h4v11.9Zm0-23.79h-4v-11.9h4v11.9Zm0-23.79h-4v-11.9h4v11.9Zm0-23.79h-4v-11.9h4v11.9Z"/><rect class="cls-6" x="436.22" y="283.6" width="4" height="6"/></g><path class="cls-7" d="m575.03,148.8h-12v-4h12v4Zm-24,0h-12v-4h12v4Zm-24,0h-12v-4h12v4Zm-24,0h-12v-4h12v4Zm-24,0h-12v-4h12v4Zm-24,0h-12v-4h12v4Zm-24,0h-12v-4h12v4Zm-24,0h-12v-4h12v4Zm-24,0h-12v-4h12v4Zm-24,0h-12v-4h12v4Zm-24,0h-12v-4h12v4Zm-24,0h-12v-4h12v4Zm271.99-8.01h-4v-12h4v12Zm-285.6-2.39h-4v-12h4v12Zm285.6-21.61h-4v-12h4v12Zm-285.6-2.39h-4v-12h4v12Zm285.6-21.61h-4v-12h4v12Zm-285.6-2.39h-4v-12h4v12Zm285.6-21.61h-4v-12h4v12Zm-285.6-2.39h-4v-12h4v12Zm285.6-21.61h-4v-12h4v12Zm-285.6-2.39h-4v-12h4v12Zm285.6-21.61h-4v-12h4v12Zm-285.6-2.39h-4V6.4h4v12Zm283.6-12.4h-12V2h12v4Zm-24,0h-12V2h12v4Zm-24,0h-12V2h12v4Zm-24,0h-12V2h12v4Zm-24,0h-12V2h12v4Zm-24,0h-12V2h12v4Zm-24,0h-12V2h12v4Zm-24,0h-12V2h12v4Zm-24,0h-12V2h12v4Zm-24,0h-12V2h12v4Zm-24,0h-12V2h12v4Zm-24,0h-12V2h12v4Z"/></g></g></svg>