<?xml version="1.0" encoding="UTF-8"?><svg id="Layer_2" xmlns="http://www.w3.org/2000/svg" xmlns:xlink="http://www.w3.org/1999/xlink" viewBox="0 0 621.64 297.89"><defs><style>.cls-1{opacity:.11;}.cls-2{fill:#fff;}.cls-3{opacity:.22;}.cls-4{opacity:.33;}.cls-5{opacity:.44;}.cls-6{opacity:.67;}.cls-7{opacity:.56;}.cls-8{opacity:.89;}.cls-9{opacity:.78;}.cls-10{fill:url(#radial-gradient);}.cls-11{opacity:0;}</style><radialGradient id="radial-gradient" cx="321.46" cy="148.95" fx="12.89" fy="117.93" r="319.52" gradientUnits="userSpaceOnUse"><stop offset="0" stop-color="#c7aecf"/><stop offset=".23" stop-color="#b4daf3"/><stop offset=".49" stop-color="#c7e1ce"/><stop offset=".73" stop-color="#f2f3c4"/><stop offset="1" stop-color="#edb4b7"/></radialGradient></defs><g id="Layer_1-2"><g><g><polygon class="cls-2" points="422.69 297.89 419.87 295.06 565.98 148.95 419.87 2.83 422.69 0 571.64 148.95 422.69 297.89"/><g class="cls-8"><polygon class="cls-2" points="376.04 297.89 373.21 295.06 519.33 148.95 373.21 2.83 376.04 0 524.99 148.95 376.04 297.89"/></g><g class="cls-9"><polygon class="cls-2" points="329.39 297.89 326.56 295.06 472.68 148.95 326.56 2.83 329.39 0 478.34 148.95 329.39 297.89"/></g><g class="cls-6"><polygon class="cls-2" points="282.74 297.89 279.91 295.06 426.03 148.95 279.91 2.83 282.74 0 431.69 148.95 282.74 297.89"/></g><g class="cls-7"><polygon class="cls-2" points="236.09 297.89 233.26 295.06 379.38 148.95 233.26 2.83 236.09 0 385.03 148.95 236.09 297.89"/></g><g class="cls-5"><polygon class="cls-2" points="189.44 297.89 186.61 295.06 332.72 148.95 186.61 2.83 189.44 0 338.38 148.95 189.44 297.89"/></g><g class="cls-4"><polygon class="cls-2" points="142.78 297.89 139.96 295.06 286.07 148.95 139.96 2.83 142.78 0 291.73 148.95 142.78 297.89"/></g><g class="cls-3"><polygon class="cls-2" points="96.13 297.89 93.3 295.06 239.42 148.95 93.3 2.83 96.13 0 245.08 148.95 96.13 297.89"/></g><g class="cls-1"><polygon class="cls-2" points="49.48 297.89 46.65 295.06 192.77 148.95 46.65 2.83 49.48 0 198.43 148.95 49.48 297.89"/></g><g class="cls-11"><polygon class="cls-2" points="2.83 297.89 0 295.06 146.12 148.95 0 2.83 2.83 0 151.77 148.95 2.83 297.89"/></g></g><polygon class="cls-10" points="472.69 0 469.87 2.83 613.98 146.95 21.28 146.95 21.28 150.95 613.98 150.95 469.87 295.06 472.69 297.89 621.64 148.95 472.69 0"/></g></g></svg>