<svg width="600" height="296" viewBox="0 0 600 296" fill="none" xmlns="http://www.w3.org/2000/svg">
<g clip-path="url(#clip0_20_63)">
<path d="M451.055 0.350006L598.595 147.89L451.055 295.42" stroke="white" stroke-miterlimit="10"/>
<path d="M421.055 0.350006L568.595 147.89L421.055 295.42" stroke="white" stroke-miterlimit="10"/>
<path d="M391.055 0.350006L538.595 147.89L391.055 295.42" stroke="white" stroke-miterlimit="10"/>
<path d="M361.055 0.350006L508.595 147.89L361.055 295.42" stroke="white" stroke-miterlimit="10"/>
<path d="M331.055 0.350006L478.595 147.89L331.055 295.42" stroke="white" stroke-miterlimit="10"/>
<path d="M301.055 0.350006L448.595 147.89L301.055 295.42" stroke="white" stroke-miterlimit="10"/>
<path d="M271.055 0.350006L418.595 147.89L271.055 295.42" stroke="white" stroke-miterlimit="10"/>
<path d="M241.055 0.350006L388.595 147.89L241.055 295.42" stroke="white" stroke-miterlimit="10"/>
<path d="M211.055 0.350006L358.595 147.89L211.055 295.42" stroke="white" stroke-miterlimit="10"/>
<path d="M181.055 0.350006L328.595 147.89L181.055 295.42" stroke="white" stroke-miterlimit="10"/>
<path d="M151.055 0.350006L298.595 147.89L151.055 295.42" stroke="white" stroke-miterlimit="10"/>
<path d="M121.055 0.350006L268.595 147.89L121.055 295.42" stroke="white" stroke-miterlimit="10"/>
<path d="M91.0549 0.350006L238.595 147.89L91.0549 295.42" stroke="white" stroke-miterlimit="10"/>
<path d="M61.0549 0.350006L208.595 147.89L61.0549 295.42" stroke="white" stroke-miterlimit="10"/>
<path d="M31.0549 0.350006L178.595 147.89L31.0549 295.42" stroke="white" stroke-miterlimit="10"/>
<path d="M1.05493 0.350006L148.595 147.89L1.05493 295.42" stroke="white" stroke-miterlimit="10"/>
</g>
<defs>
<clipPath id="clip0_20_63">
<rect width="598.59" height="295.77" fill="white" transform="translate(0.704956)"/>
</clipPath>
</defs>
</svg>
